# xmcd CD database file
#
# Track frame offsets:
#	150
#	20505
#	35435
#	46182
#	57352
#	69722
#	82302
#	101515
#	112022
#	122645
#	148535
#	163117
#	171790
#	184052
#	198255
#	212260
#	223465
#	236677
#	249605
#	257027
#
# Disc length: 3595 seconds
#
# Revision: 3
# Processed by: cddbd v1.5.2PL0 Copyright (c) Steve Scherf et al.
# Submitted via: CDex 1.51
#
DISCID=2b0e0914
DTITLE=The Animals - The Most Of The Animals
DYEAR=1900
DGENRE=Rock and Roll
TTITLE0=The House Of The Rising Sun
TTITLE1=Boom Boom
TTITLE2=Baby Let Me Take You Home
TTITLE3=Gonna Send You Back To Walker
TTITLE4=Around And Around
TTITLE5=I'm Crying
TTITLE6=I'm Mad Again
TTITLE7=She Said Yeah
TTITLE8=The Girl Can't Help It
TTITLE9=The Story Of Bo Diddley
TTITLE10=We've Gotta Get Out Of This Place
TTITLE11=Let The Good Times Roll
TTITLE12=Bring It On Home To Me
TTITLE13=It's My Life
TTITLE14=Memphis Tennessee
TTITLE15=Don't Let Me Be Misunderstood
TTITLE16=Bright Lights Big City
TTITLE17=Dimples
TTITLE18=I've Been Around
TTITLE19=Roadrunner
EXTD=
EXTT0=
EXTT1=
EXTT2=
EXTT3=
EXTT4=
EXTT5=
EXTT6=
EXTT7=
EXTT8=
EXTT9=
EXTT10=
EXTT11=
EXTT12=
EXTT13=
EXTT14=
EXTT15=
EXTT16=
EXTT17=
EXTT18=
EXTT19=
PLAYORDER=
